<?xml version="1.0"?><svg width="1024" height="768" xmlns="http://www.w3.org/2000/svg">
 <title>Red Swirl</title>
 <metadata id="metadata15">image/svg+xml</metadata>
 <defs>
  <pattern id="gridpattern" patternUnits="userSpaceOnUse" x="0" y="0" width="100" height="100">
   <image id="svg_1" x="0" y="0" width="100" height="100"/>
  </pattern>
 </defs>
 <g>
  <title>Layer 1</title>
  <g id="svg_9">
   <path fill="#930819" fill-rule="evenodd" stroke-width="0" d="m210.094269,318.230865c19.203094,-6.449219 27.727997,-16.818665 28.892487,-30.611389c1.678101,-20.06604 -29.030685,-29.272614 -44.8069,-21.23172c-9.495499,4.840027 -22.008377,16.875061 -22.699081,31.199036c1.444427,32.95105 21.188156,48.122986 46.24527,53.03833c48.614838,9.536835 129.890106,-54.187103 191.995117,-65.095917c63.877716,-11.220001 89.698517,16.477173 104.269928,37.328583c-30.351563,-22.843781 -66.400299,-28.10791 -95.403503,-23.008087c-66.546448,11.701721 -128.378235,77.022736 -200.869171,67.576263c-36.823776,-6.184082 -66.759216,-38.603821 -57.135254,-76.858704c15.128632,-53.477112 73.801025,-44.770447 82.6586,-16.144531c8.923645,28.839417 -13.390137,45.697418 -33.147491,43.808136z" stroke="#b20715" id="svg_4"/>
   <path fill="#930819" fill-rule="evenodd" stroke-width="0" d="m171.523987,323.374939c-73.286392,-58.714844 -114.777946,10.864655 -81.495331,34.622131c-13.880997,-27.364746 6.158447,-45.02829 25.80191,-44.067596c33.071014,1.617065 58.171631,32.689636 70.031464,40.666077l-14.338043,-31.220612z" stroke="#b20715" id="svg_5"/>
   <g id="svg_8">
    <path fill="#930819" fill-rule="evenodd" stroke-width="0" d="m908.237,314.784424c70.327515,-58.714844 110.14386,10.864685 78.205017,34.622223c13.320435,-27.364777 -5.90979,-45.028351 -24.760254,-44.067657c-31.735718,1.617096 -55.822998,32.689667 -67.203979,40.666046l13.759216,-31.220612z" id="path3209" stroke="#b20715"/>
    <path fill="#930819" fill-rule="evenodd" stroke-width="0" id="path3207" d="m857.160217,318.226868c-21.29834,-6.449249 -30.753357,-16.818756 -32.044922,-30.611389c-1.861267,-20.06604 32.198242,-29.272705 49.695862,-21.23172c10.531494,4.840027 24.40979,16.875031 25.175781,31.199036c-1.601929,32.950989 -23.500061,48.123016 -51.291077,53.0383c-53.919434,9.536865 -144.062805,-54.187103 -212.944153,-65.095886c-70.847473,-11.220032 -99.485718,16.477173 -115.647095,37.328583c33.663452,-22.843781 73.645447,-28.107971 105.813232,-23.008118c73.807434,11.701752 142.385803,77.022736 222.786316,67.576294c40.841736,-6.184143 74.043579,-38.603882 63.369446,-76.858795c-16.779297,-53.477066 -81.853577,-44.770355 -91.677612,-16.14447c-9.897278,28.839478 14.851196,45.697418 36.764221,43.808167z" stroke="#b20715"/>
   </g>
  </g>
 </g>
</svg>